SplineFontDB: 3.2
FontName: MagdalenaKajic
FullName: MagdalenaKajic
FamilyName: MagdalenaKajic
Weight: Regular
Copyright: Copyright (c) 2024, magda
UComments: "2024-3-13: Created with FontForge (http://fontforge.org)"
Version: 001.000
ItalicAngle: 0
UnderlinePosition: -100
UnderlineWidth: 50
Ascent: 800
Descent: 200
InvalidEm: 0
LayerCount: 3
Layer: 0 0 "Stra+AX4A-nji" 1
Layer: 1 0 "Prednji" 0
Layer: 2 0 "Stra+AX4A-nji 2" 1
XUID: [1021 227 -1418341287 26141]
OS2Version: 0
OS2_WeightWidthSlopeOnly: 0
OS2_UseTypoMetrics: 1
CreationTime: 1710344720
ModificationTime: 1710426873
OS2TypoAscent: 0
OS2TypoAOffset: 1
OS2TypoDescent: 0
OS2TypoDOffset: 1
OS2TypoLinegap: 0
OS2WinAscent: 0
OS2WinAOffset: 1
OS2WinDescent: 0
OS2WinDOffset: 1
HheadAscent: 0
HheadAOffset: 1
HheadDescent: 0
HheadDOffset: 1
OS2Vendor: 'PfEd'
MarkAttachClasses: 1
DEI: 91125
Encoding: iso8859-2
UnicodeInterp: none
NameList: AGL For New Fonts
DisplaySize: -48
AntiAlias: 1
FitToEm: 0
WinInfo: 0 38 13
BeginPrivate: 0
EndPrivate
BeginChars: 256 20

StartChar: M
Encoding: 77 77 0
Width: 363
Flags: HW
LayerCount: 3
Fore
SplineSet
18 0 m 1
 24.8376600146 230.000025396 23.5781720296 474.000004954 9 666 c 1
 58 665 l 1
 112.046875 522.69921875 145.107421875 382.544921875 194 268 c 5
 227.03125 409.583007812 246 540 283 675 c 13
 327 669 l 1
 331.909179688 434.013671875 331.571289062 198.573242188 353 0 c 1
 303 0 l 1
 282.692382812 214.192382812 282.5859375 406.618164062 295 648 c 1
 267.83984375 515.110351562 264 385 208 251 c 1
 197 251 l 25
 167 251 l 17
 102.331054688 356.524414062 71.2119140625 503.740234375 29 639 c 1
 28.258360402 601.118518188 60.0025017812 362.648516101 49 0 c 0
 48.909027627 -2.99849949723 23 0 18 0 c 1
EndSplineSet
EndChar

StartChar: K
Encoding: 75 75 1
Width: 276
Flags: HW
LayerCount: 3
Fore
SplineSet
24 0 m 1
 14.587890625 162.866210938 1.3896484375 416.287109375 13 674 c 1
 50 673 l 1
 46 534 39.6787109375 470.145507812 49 378 c 1
 94 502 156 556 190 666 c 1
 227 645 l 1
 182 535 143 516 57 347 c 1
 66 349 279.966382751 -7.12073035325 263 0 c 0
 260.233398438 1.1611328125 187.19974477 1.59965969281 186 0 c 4
 180 -8 114.524414062 168.864257812 57 303 c 1
 42.2470703125 309.3984375 65.31640625 -3.3251953125 71 0 c 0
 74.453125 2.0205078125 24 0 24 0 c 1
EndSplineSet
EndChar

StartChar: Zcaron
Encoding: 174 381 2
Width: 371
Flags: HW
LayerCount: 3
Fore
SplineSet
119 747 m 1
 133.368164062 722.266601562 148.24609375 699.353515625 170 672 c 5
 199 673 l 1
 224.624023438 706.879882812 233.803710938 729.353515625 249 756 c 1
 213 753 l 1
 205.920898438 732.397460938 193.978515625 709.208007812 182 686 c 1
 162.431640625 703.254882812 149.568359375 725.517578125 137 748 c 1
 119 747 l 1
30 656 m 1
 120.333007812 652.493164062 267.666992188 655.537109375 358 661 c 1
 349 599 l 1
 249 412 154 232 53 38 c 1
 128.456054688 41.431640625 252.930664062 36.2109375 352 32 c 1
 356 0 l 1
 356 1.26171875 6.99999811985 -1.35410233339 7 0 c 0
 7.00000277697 2 8 97 8 97 c 1
 124 284 201 447 319 631 c 1
 234.309570312 623.844726562 114.073242188 619.625976562 32 622 c 1
 30 656 l 1
EndSplineSet
EndChar

StartChar: zcaron
Encoding: 190 382 3
Width: 201
Flags: HW
LayerCount: 3
Fore
SplineSet
45 417 m 1
 55.6552734375 395.52734375 65.7109375 379.8125 80 361 c 1
 114 360 l 1
 129.454101562 383.56640625 135.543945312 400.436523438 144 419 c 9
 111 420 l 17
 104.791992188 403.666992188 99.2314453125 387.333007812 89 371 c 1
 78.86328125 386.209960938 68.0400390625 399.778320312 60 420 c 1
 45 417 l 1
27 344 m 1
 79.0036284756 341.470728745 136.62109375 344.506835938 186 347 c 1
 183 280 l 5
 126.790039062 186.034179688 88.927734375 134.274414062 43 35 c 1
 43 31.5625 193.001618056 30.6153250405 195 38 c 0
 195.522460938 39.9306640625 194 -1 194 0 c 0
 194 1 5 0 5 0 c 1
 6 51 l 1
 54.3837890625 152.040039062 101.354492188 227.6015625 164 326 c 1
 117.333007812 323.76953125 73.6669921875 324.25390625 27 326 c 1
 27 344 l 1
EndSplineSet
EndChar

StartChar: Ccaron
Encoding: 200 268 4
Width: 389
Flags: HW
LayerCount: 3
Fore
SplineSet
336 535 m 0
 384 483.441431444 379 536.096968437 371 554 c 1
 371 554 289.521907132 704.023661612 148 629 c 0
 -101 497 36.8603991531 144.715194834 72 90 c 0
 106.380412847 36.4669221608 278.349501331 -89.6538118899 345 125 c 0
 348.414108519 135.99543773 353.143610034 153.999999813 353.143610034 153.999999813 c 1
 350.966796875 157.353515625 l 1
 320.119140625 153.818359375 327.458984375 144.705078125 332 136 c 0
 332.000002273 132.584737408 l 1
 332.000002273 132.584737408 198.866204548 -27.7162847461 96 121 c 0
 -77.1795813707 371.370119598 174.94427094 589.04608267 223 606 c 0
 252.485351562 616.40234375 298 616 311 576 c 1
 311 576 330.122112298 541.313655751 336 535 c 0
193 746 m 1
 203.655273438 724.52734375 216.7109375 704.8125 231 686 c 1
 256 686 l 17
 271.454101562 709.56640625 277.543945312 726.436523438 286 745 c 9
 253 746 l 17
 246.791992188 729.666992188 241.231445312 713.333007812 231 697 c 1
 220.86328125 712.209960938 210.040039062 725.778320312 202 746 c 1
 193 746 l 1
EndSplineSet
EndChar

StartChar: l
Encoding: 108 108 5
Width: 79
Flags: HW
LayerCount: 3
Fore
SplineSet
70 0 m 5
 24.7412109375 105.000976562 51 389 74 676 c 1
 30 677 l 1
 4 416 -15 53 40 0 c 1
 70 0 l 5
EndSplineSet
EndChar

StartChar: i
Encoding: 105 105 6
Width: 87
Flags: HW
LayerCount: 3
Fore
SplineSet
41 403 m 1
 41.6201171875 404.404296875 -7.9814453125 382.07421875 23 352 c 0
 69.3935546875 306.96484375 65.216796875 405.118164062 56 399 c 1
 41 403 l 1
11 317 m 1
 19.4306640625 322.887695312 30.2285185617 -5.06639684338 14 0 c 0
 8.2724609375 1.7880859375 68.31640625 2.236328125 65 0 c 4
 54.7001953125 -6.943359375 49.5280768004 231.154359791 73 322 c 0
 75.810546875 332.877929688 19.0400390625 320.063476562 11 317 c 1
EndSplineSet
EndChar

StartChar: j
Encoding: 106 106 7
Width: 151
Flags: HW
LayerCount: 3
Fore
SplineSet
60 295 m 1
 100 298 l 1
 115 6 l 1
 163 -292 -32 -169 -47 -147 c 1
 -57 -141 -69.9990234375 -95 -41 -43 c 0
 -29.5888671875 -22.5380859375 -26 -25 -28 -31 c 1
 -46.9033203125 -98.2275390625 -21.009765625 -118.583984375 -17 -126 c 5
 38 -151 94.9560546875 -147.311523438 94 0 c 4
 93.0322265625 149.078125 64.5732421875 162.701171875 60 295 c 1
66 385 m 9
 66 385 39.1435546875 348.750976562 62 334 c 0
 85.625 318.752929688 121.6875 371.737304688 102 385 c 0
 65.078125 409.872070312 78.2060546875 380.044921875 66 385 c 9
EndSplineSet
EndChar

StartChar: e
Encoding: 101 101 8
Width: 335
Flags: HW
LayerCount: 3
Fore
SplineSet
107 233 m 1
 105 249 173.03515625 314.564453125 217 309 c 0
 260.932617188 303.439453125 273.424804688 301.092773438 297 257 c 0
 327.563476562 199.837890625 183.74609375 171.974609375 136 211 c 0
 129.520507812 216.295898438 109 229 107 233 c 1
79 208.642578125 m 1
 125 164 388.240213719 120.377919798 319 265 c 0
 244.750976562 420.083984375 72 318 51 284 c 1
 16 215 -0.507913851509 162.865227148 4 99.642578125 c 0
 12.619140625 -21.2392578125 130.310546875 3.3193359375 174 0 c 0
 175.342773438 -0.1015625 201 5.357421875 221 14 c 1
 284 45 l 1
 284.09375 45.1611328125 294.29533207 76.4780756328 287 84.642578125 c 0
 284 88 267 73 267 73 c 1
 267 73 146 -7 79 34.642578125 c 0
 23.2227864039 69.3098464051 40 184.642578125 79 208.642578125 c 1
EndSplineSet
EndChar

StartChar: n
Encoding: 110 110 9
Width: 279
Flags: HW
LayerCount: 3
Fore
SplineSet
4 0 m 1
 5 319 l 1
 34 332 l 1
 30 1.6865234375 l 0
 27.8125 0.55859375 29 223 29 223 c 1
 29 223 68.0654296875 323.067382812 125.508789062 327 c 0
 248.508789062 335.420898438 263.485351562 202.661132812 271 147 c 1
 271 147 272.712890625 67.3671875 275 15 c 0
 275.3046875 8.033203125 273.040039062 1 273.040039062 1 c 1
 255 -1 l 1
 252 0 l 1
 252.032226562 5.69921875 253.9296875 46.0859375 254 46 c 1
 249 46 289.040105836 239.085614649 118 270 c 1
 118 270 94.3291015625 265.997070312 85 259 c 4
 33 220 42 191 39 161 c 1
 39 161 36 91 32 11 c 0
 31.744140625 5.88671875 30 1.6865234375 30 1.6865234375 c 1
 30 -2.4453125 10.37890625 0.5791015625 4 0 c 1
EndSplineSet
EndChar

StartChar: ccaron
Encoding: 232 269 10
Width: 279
Flags: HW
LayerCount: 3
Fore
SplineSet
266 239 m 0
 288.921875 253.13671875 157 444 56 272.771484375 c 0
 -66.3198859682 65.3986872883 79.818359375 26.1142578125 79 26 c 1
 79 26 226.693942409 -53.6483900508 241 65 c 0
 247.377531084 117.892545052 230.000000104 77.6697877291 230.000000104 77.6697877291 c 5
 230.000000104 77.6697877291 225.481193361 62.7130979687 226 61.60546875 c 1
 228.273599581 59.1828723765 140.812798461 16.0649137556 79 70 c 0
 -71.1482202628 201.01262863 232.678633524 385.708597516 249 210 c 1
 249 210 262.00390625 236.53515625 266 239 c 0
94 416 m 1
 104.655273438 394.52734375 117.7109375 377.8125 132 359 c 1
 167 357 l 1
 182.454101562 380.56640625 195.543945312 397.436523438 204 416 c 9
 164 417 l 1
 157.791992188 400.666992188 152.231445312 384.333007812 142 368 c 1
 131.86328125 383.209960938 121.040039062 396.778320312 113 417 c 1
 94 416 l 1
EndSplineSet
EndChar

StartChar: cacute
Encoding: 230 263 11
Width: 275
Flags: HW
LayerCount: 3
Fore
SplineSet
192 414 m 1
 234 413 l 1
 183 357 l 1
 149 364 l 1
 192 414 l 1
266 239 m 4
 288.921875 253.13671875 157 444 56 272.771484375 c 4
 -66.3198859682 65.3986872883 79.818359375 26.1142578125 79 26 c 5
 79 26 226.693942409 -53.6483900508 241 65 c 4
 250.03125 139.901367188 224.234375 65.375 226 61.60546875 c 5
 228.273599581 59.1828723765 140.812798461 16.0649137556 79 70 c 4
 -71.1482202628 201.01262863 232.678633524 385.708597516 249 210 c 5
 249 210 262.00390625 236.53515625 266 239 c 4
EndSplineSet
EndChar

StartChar: Cacute
Encoding: 198 262 12
Width: 389
Flags: HW
LayerCount: 3
Fore
SplineSet
281 751 m 1
 312 745 l 5
 261 688 l 1
 227 690 l 1
 281 751 l 1
336 542 m 0
 384 536 379 541 371 561 c 1
 371 561 284.824000752 749.942621377 147 624 c 0
 -85 412 34.014460114 150.222836804 41 118 c 0
 47.9707035352 85.8456001833 297.664494006 -128.327669437 349 114 c 0
 402.081192465 364.568128473 265.475523505 -136.303774788 95 116 c 0
 -55 338 161.91796875 585.830078125 210 604 c 0
 239.248046875 615.052734375 300 611 316 581 c 1
 316 581 327.439999345 543.070000082 336 542 c 0
EndSplineSet
EndChar

StartChar: a
Encoding: 97 97 13
Width: 320
Flags: HW
LayerCount: 3
Fore
SplineSet
230 69 m 1
 230 69 65.8160362586 -5.71480923555 46 90 c 0
 26.3043286918 185.133426152 129.30859375 309.430664062 189 298 c 0
 236 289 251 269 257 202 c 0
 265.010214474 112.552605046 241 79 230 69 c 1
260.004882812 37 m 1024
  Spiro
    260.005 37 {
    0 0 z
  EndSpiro
217 334 m 5
 217 334 8.881784197e-16 383 6.0048828125 160 c 0
 12.4198434314 -78.2288318835 256.004882812 22 260.004882812 37 c 0
 261.95219814 44.3024324776 263 7 263 7 c 1
 263.004882812 0 l 1
 311.004882812 0 l 1
 312.004882812 326 l 1
 273.004882812 317 l 1
 273.004882812 281 l 1
 272.30859375 298.506835938 245 323 217 334 c 5
EndSplineSet
EndChar

StartChar: d
Encoding: 100 100 14
Width: 320
Flags: HW
LayerCount: 3
Fore
SplineSet
228 80 m 1
 177 28 28 -16 58 173 c 0
 85.7721736615 347.964694068 208.199144198 322.78580124 240 286 c 0
 269.458863925 251.923309742 264.950002689 228.990048423 264 172 c 0
 263.216827879 125.018009756 235 90 228 80 c 1
236 329 m 1
 172 346 -22.2985252831 388.484097266 5 153 c 0
 31.7995970366 -78.1802139417 258.700205146 15.348446327 270 37 c 0
 275.576988755 47.6860764221 270.272142307 -3.83407902028e-08 271 0 c 1
 316 0 l 1
 317 731 l 5
 283 727 l 1
 281 275 l 1
 280.303710938 292.506835938 254 322 236 329 c 1
EndSplineSet
EndChar

StartChar: dcroat
Encoding: 240 273 15
Width: 387
Flags: HW
LayerCount: 3
Fore
SplineSet
226 75 m 1
 203 7 37 0 63 182 c 0
 79.8047612301 299.633328611 228 296 240 286 c 0
 261.247950721 268.293374399 273 214 265 162 c 0
 257.85546875 115.557617188 245 106 226 75 c 1
236 329 m 1
 236 329 -28.6690784752 382.911707302 5 153 c 0
 40 -86 250.061665542 25.0739986501 260 37 c 0
 257 0 l 1
 311 0 l 1
 313 567 l 0
 380 572 l 0
 374 604 l 0
 312 603 l 0
 311 737 l 1
 276 730 l 1
 275 601 l 0
 213 595 l 0
 219 564 l 0
 277 565 l 0
 281 275 l 1
 280.303710938 292.506835938 264 318 236 329 c 1
EndSplineSet
EndChar

StartChar: Dcroat
Encoding: 208 272 16
Width: 386
Flags: HW
LayerCount: 3
Fore
SplineSet
91 52 m 1
 91 52 352 151 328 337 c 0
 304 523 85 590 83 590 c 0
 82.0615234375 590 84 375 84 375 c 1
 155 370 l 1
 158 339 l 1
 86 337 l 1
 86 337 91.5771484375 88.923828125 91 52 c 1
54 6 m 0
 49.7548828125 12.3681640625 52 337 52 337 c 1
 8 337 l 1
 10 367 l 1
 51 375 l 1
 47 660 l 1
 47 660 370 631 380 345 c 0
 390 59 69.9991506429 -18.0005662163 54 6 c 0
EndSplineSet
EndChar

StartChar: Scaron
Encoding: 169 352 17
Width: 333
Flags: HW
LayerCount: 3
Fore
SplineSet
123 751 m 5
 137.368164062 726.266601562 159.24609375 707.353515625 181 680 c 1
 202 676 l 1
 227.624023438 709.879882812 248.803710938 730.353515625 264 757 c 1
 226 756 l 1
 206 720 200 712 185 689 c 1
 168 712 158.568359375 727.517578125 146 750 c 1
 123 751 l 5
316 541 m 1
 313 600 l 1
 312.329101562 605.8671875 80.8260092937 798.244528115 43 511 c 0
 19.2990148854 331.018595347 151 353 160 345 c 1
 167 342 268.309095228 278.145428633 280 208 c 0
 290 148 171.187380687 -8.99927594689 95 27 c 0
 56.9716796875 44.96875 8 141 8 141 c 1
 9 77 l 1
 2.76836265347 75.961555603 83.3029340668 -16.5373388729 186 0 c 0
 187.974562891 0.317964445824 361.149562698 62.8465175788 328 220 c 0
 301 348 205 364 202 370 c 1
 192 376 28 389 90 525 c 0
 159.340820312 677.1015625 238 621 282 582 c 1
 316 541 l 1
EndSplineSet
EndChar

StartChar: scaron
Encoding: 185 353 18
Width: 238
Flags: HW
LayerCount: 3
Fore
SplineSet
212 269 m 1
 210 300 l 1
 210.47265625 302.567382812 80 405 30 302 c 0
 -49.2763671875 138.690429688 83 155 92 147 c 1
 126 147 160.838867188 161.756835938 182 113 c 4
 213.236328125 41.029296875 139.645507812 12.462890625 73 26 c 4
 31.7822265625 34.3720703125 3 59 3 59 c 1
 4 29 l 1
 -2.2314453125 27.9619140625 55.3056640625 -12.556640625 158 4 c 0
 159.974609375 4.318359375 254 4 224 119 c 0
 213.28515625 160.075195312 179 158 147 165 c 1
 131 168 -44.302734375 148.46875 65 289 c 0
 114 352 152 319 196 280 c 1
 212 269 l 1
50 420 m 1
 60.6552734375 398.52734375 81.7109375 378.8125 96 360 c 1
 127 360 l 1
 142.454101562 383.56640625 148.543945312 400.436523438 157 419 c 9
 124 420 l 17
 117.791992188 403.666992188 112.231445312 387.333007812 102 371 c 1
 91.86328125 386.209960938 81.0400390625 399.778320312 73 420 c 1
 50 420 l 1
EndSplineSet
EndChar

StartChar: g
Encoding: 103 103 19
Width: 320
Flags: HW
LayerCount: 3
Fore
SplineSet
254 72 m 1
 203.708111017 20.0529092203 -41.3419782235 -30.796498605 59 177 c 0
 132.978223044 330.200245736 237.827148438 292.840820312 248 282 c 0
 261.844726562 267.24609375 262.228949776 240.3212717 264 185 c 0
 267.66796875 70.42578125 262 83 254 72 c 1
226 333 m 1
 226 333 11 389 5 153 c 0
 -1.05690349874 -85.2382042838 258.280273438 23.736328125 272 31 c 4
 280.038085938 35.255859375 312 -138 279 -166 c 1
 170.0625 -202.1328125 106.056640625 -117.188476562 70 -69 c 0
 51 -92 l 0
 80.2109375 -217.1875 257.612901364 -220.417572208 301 -165 c 1
 331.120485541 -126.782150833 303.579101562 163.775390625 308 323 c 1
 264 326 l 1
 268 287 l 1
 267.303710938 304.506835938 254 315 226 333 c 1
EndSplineSet
EndChar
